PathFileType	4	(X/Y/Z)	markers_0_video_left_upright_43fa9c767a284c608474a81e5a60fe99.trc
DataRate	CameraRate	NumFrames	NumMarkers	Units	OrigDataRate	OrigDataStartFrame	OrigNumFrames
12.500000	12.500000	4	42	mm	12.500000	1508	3015
Frame#	Time	Nose			LEye			REye			LEar			REar			LShoulder			RShoulder			LElbow			RElbow			LHip			RHip			LKnee			RKnee			LAnkle			RAnkle			LBigToe			LSmallToe			LHeel			RBigToe			RSmallToe			RHeel			RIndex			RPinky			RWrist			LIndex			LPinky			LWrist			LOlecranon			ROlecranon			LCubitalFossa			RCubitalFossa			LAcromion			RAcromion			Neck			PelvisCenter			Thorax			c_spine0			c_spine1			c_spine2			c_spine3			c_neck			c_head
		X1	Y1	Z1	X2	Y2	Z2	X3	Y3	Z3	X4	Y4	Z4	X5	Y5	Z5	X6	Y6	Z6	X7	Y7	Z7	X8	Y8	Z8	X9	Y9	Z9	X10	Y10	Z10	X11	Y11	Z11	X12	Y12	Z12	X13	Y13	Z13	X14	Y14	Z14	X15	Y15	Z15	X16	Y16	Z16	X17	Y17	Z17	X18	Y18	Z18	X19	Y19	Z19	X20	Y20	Z20	X21	Y21	Z21	X22	Y22	Z22	X23	Y23	Z23	X24	Y24	Z24	X25	Y25	Z25	X26	Y26	Z26	X27	Y27	Z27	X28	Y28	Z28	X29	Y29	Z29	X30	Y30	Z30	X31	Y31	Z31	X32	Y32	Z32	X33	Y33	Z33	X34	Y34	Z34	X35	Y35	Z35	X36	Y36	Z36	X37	Y37	Z37	X38	Y38	Z38	X39	Y39	Z39	X40	Y40	Z40	X41	Y41	Z41	X42	Y42	Z42

1508	120.560000	1880.555369	1006.710522	599.254528	1805.269574	1035.309521	593.369177	1836.230516	970.195328	542.979773	1761.352861	1158.060389	519.314776	1837.818070	1001.844429	396.664890	1991.442425	1378.673515	583.198419	2039.093606	1082.001495	205.077801	2164.328898	1595.165631	830.786619	2383.418597	1061.030902	40.176141	2728.210158	1202.498143	491.258851	2680.696207	1088.484141	305.276617	3215.286060	956.420220	537.522877	3100.485140	740.045218	257.076057	3713.586710	822.232760	458.521688	3585.511403	601.661676	129.121738	3714.869205	614.304903	624.235723	3765.360379	707.477935	646.985455	3783.439868	831.640026	420.983907	3571.530128	345.351735	198.012872	3579.492134	375.661830	94.662568	3657.847380	620.739442	100.812286	2760.414964	808.520090	261.785508	2772.922714	873.473659	187.784062	2629.479234	864.615710	142.647700	1988.794826	1164.946322	1045.971348	2050.126766	1213.684332	1080.406657	2040.954494	1335.581148	997.191582	2185.120751	1620.334110	857.782891	2413.341830	1082.894897	0.003140	2143.864669	1547.060315	820.489114	2375.091254	1039.086540	83.452271	1936.721136	1347.361445	589.068511	1993.332680	1055.744921	217.281894	1962.353376	1180.732632	427.136014	2704.453183	1145.491142	398.267734	1965.026908	1201.553183	403.175203	2673.866774	1207.121005	368.275585	2522.765131	1242.755249	382.217276	2371.735691	1288.120956	374.949718	2112.769465	1272.342583	380.320052	1991.692156	1202.533426	416.609899	1874.337202	1115.329977	458.714365
1509	120.640000	1792.659885	1032.583735	583.615834	1718.786796	1063.950292	572.919638	1750.998101	997.925567	523.823644	1684.786172	1188.427876	497.006616	1763.986849	1030.797741	378.304897	1909.784637	1399.746939	568.259843	1963.067750	1114.680396	191.460838	2067.146894	1630.487413	809.690790	2306.644450	1094.982833	33.032139	2653.384355	1232.580958	493.896278	2611.664072	1119.166924	302.253643	3146.586059	978.633880	546.707705	3043.699608	770.614944	253.207578	3654.296139	833.245220	479.455445	3534.964912	610.329187	131.922333	3652.244526	624.019938	645.482635	3703.891435	716.457335	669.084993	3725.421758	841.652141	442.910279	3517.975629	351.458607	197.870573	3529.018234	382.741115	94.816400	3608.847585	628.365418	105.416723	2681.022030	839.981323	264.653381	2695.597899	903.934366	189.540233	2551.016389	896.907781	142.253000	1987.542147	1226.006393	1146.094644	2044.550057	1291.836643	1153.300431	2000.873557	1388.369163	1039.753479	2088.422157	1663.268565	832.362981	2337.228711	1116.801651	-6.521871	2051.902788	1579.158323	806.781506	2297.583621	1073.013328	76.237780	1855.783639	1368.429384	574.616643	1917.736205	1086.797200	201.952920	1885.607623	1206.692445	412.791639	2632.524214	1175.873941	398.074960	1886.759922	1227.613292	388.284782	2602.127122	1237.547338	368.224025	2449.294301	1271.742539	378.888479	2297.135140	1316.351750	368.432316	2036.464550	1299.160459	369.232338	1914.218352	1228.170492	402.503849	1799.775298	1142.258397	443.655009
1510	120.720000	1691.542591	1076.602510	587.346666	1622.538755	1118.803085	576.583951	1644.317051	1047.697944	528.018016	1606.688998	1246.698753	498.850306	1660.829136	1076.923113	381.665186	1848.066490	1426.629269	569.711292	1873.339466	1128.303735	190.266119	2019.270509	1633.391765	822.605082	2211.514193	1083.730497	28.901938	2576.826544	1212.124950	486.727101	2529.372132	1093.823223	304.745725	3066.632435	969.125561	541.562485	2974.317826	775.710110	254.045810	3565.491682	836.198645	468.104212	3454.861641	611.795807	141.756432	3568.304351	626.638134	633.159482	3619.867603	719.237378	656.174619	3634.932644	846.156326	430.730851	3436.358581	354.553153	211.310457	3447.682871	384.582420	108.121473	3528.339032	629.265266	116.132562	2600.356032	851.808250	266.474147	2610.304652	908.234894	185.119674	2460.407627	896.801569	145.964909	1950.467244	1222.727039	1125.839816	2002.371528	1288.251381	1138.706650	1955.589258	1386.114775	1036.372958	2042.151622	1665.113911	846.590584	2240.975428	1101.445226	-13.756242	2002.441554	1582.683444	816.739915	2203.825853	1066.250902	74.154262	1792.164961	1398.898281	574.524527	1826.517246	1105.374206	203.196596	1808.030322	1235.607720	411.890552	2553.099338	1152.974086	395.736413	1809.341104	1252.136243	388.860561	2524.457177	1213.781375	363.634674	2374.155461	1255.167807	373.749084	2226.101113	1309.634339	361.687530	1966.049720	1313.027831	364.075597	1839.507809	1253.257136	400.571640	1713.597685	1182.659557	445.847289
1511	120.800000	1607.550802	1095.857153	540.264700	1544.286458	1145.789620	525.165926	1563.795816	1075.297192	474.247752	1548.780209	1278.780221	454.747020	1597.857922	1109.586601	331.617971	1768.347770	1429.035785	565.505374	1816.420131	1165.322275	154.384067	1961.360054	1709.056168	672.894419	2150.266029	1128.433483	2.568427	2516.513382	1218.799555	486.399849	2475.352514	1105.393683	294.433960	3018.267938	982.647950	542.849337	2933.614466	791.485112	245.152136	3527.383151	857.653647	484.916183	3423.773149	632.371636	138.484871	3524.646253	642.338663	644.595165	3575.071001	734.299733	672.440121	3598.717579	868.464055	451.771234	3410.845526	373.645330	206.111772	3423.529909	404.887504	103.217154	3497.935142	651.602698	114.229341	2533.664397	882.359835	257.345975	2550.543928	940.377060	178.530161	2397.863307	936.599986	129.323888	2356.928384	1516.483481	483.363573	2335.542460	1598.183866	508.933732	2249.697490	1558.952917	634.618774	1973.821445	1754.228405	681.571083	2180.972146	1147.633784	-38.632444	1972.905854	1660.692199	653.878738	2141.357806	1109.413114	47.574668	1723.621638	1399.864162	572.091037	1769.738006	1142.956600	165.734574	1747.127124	1258.011295	383.411142	2495.932948	1162.096619	390.416905	1746.679822	1271.410381	368.912805	2466.982081	1224.623637	359.729067	2315.435575	1266.599085	366.872183	2168.093240	1325.040355	350.468040	1906.428151	1337.160045	344.254332	1778.377636	1275.247483	375.319410	1653.375689	1206.302401	407.686339
